<svg width="18" height="16" viewBox="0 0 18 16" fill="none" xmlns="http://www.w3.org/2000/svg">
<g clip-path="url(#clip0_94_779)">
<path d="M11.9125 4.69688L16.4031 5.35938C16.775 5.4125 17.0875 5.675 17.2062 6.03438C17.325 6.39688 17.2281 6.79063 16.9593 7.05938L13.7031 10.2531L14.4718 14.8344C14.5343 15.2094 14.3812 15.5906 14.0687 15.8125C13.7593 16.0344 13.35 16.0625 13.0156 15.8844L9.00309 13.7438L4.99371 15.8844C4.65621 16.0625 4.24684 16.0344 3.93746 15.8125C3.62809 15.5906 3.47184 15.2094 3.53746 14.8344L4.30621 10.2531L1.04934 7.05938C0.780275 6.79063 0.68465 6.39688 0.802775 6.03438C0.920587 5.675 1.23215 5.4125 1.60684 5.35938L6.09371 4.69688L8.10621 0.561564C8.27184 0.217314 8.62184 -0.0012207 9.00309 -0.0012207C9.38746 -0.0012207 9.73746 0.217314 9.90309 0.561564L11.9125 4.69688Z" fill="#82DFDF"/>
</g>
<defs>
<clipPath id="clip0_94_779">
<rect width="18" height="16" fill="white"/>
</clipPath>
</defs>
</svg>
