<svg width="17" height="17" viewBox="0 0 17 17" fill="none" xmlns="http://www.w3.org/2000/svg">
<path d="M15.5833 1.7H12.4745C12.0535 1.7 11.8449 2.12832 12.14 2.38066L12.8051 2.94179L9.6294 5.62129C8.75579 5.15644 7.72083 4.8875 6.61111 4.8875C3.48264 4.8875 0.944443 7.0291 0.944443 9.66875C0.944443 12.3084 3.48264 14.45 6.61111 14.45C9.73958 14.45 12.2778 12.3084 12.2778 9.66875C12.2778 8.73242 11.959 7.85918 11.4081 7.12207L14.5838 4.44257L15.2488 5.00371C15.5479 5.25605 16.0556 5.07675 16.0556 4.72148V2.09843C16.0556 1.87929 15.8431 1.7 15.5833 1.7V1.7ZM6.61111 12.325C4.87569 12.325 3.46296 11.133 3.46296 9.66875C3.46296 8.20449 4.87569 7.0125 6.61111 7.0125C8.34653 7.0125 9.75926 8.20449 9.75926 9.66875C9.75926 11.133 8.34653 12.325 6.61111 12.325Z" fill="#82DFDF"/>
</svg>
