<svg width="40" height="40" viewBox="0 0 40 40" fill="none" xmlns="http://www.w3.org/2000/svg">
<g clip-path="url(#clip0_732_3261)">
<path d="M39.3828 5.54932L34.3828 0.549316C33.6504 -0.183105 32.464 -0.183105 31.7312 0.549316C30.9984 1.28174 30.9988 2.46807 31.7312 3.20088L32.9765 4.3751L30 7.34854L25.7008 3.04932C24.9683 2.31689 23.782 2.31689 23.0492 3.04932C22.3877 3.7108 22.356 4.72666 22.8893 5.46025L34.5377 17.1087C34.8672 17.3517 35.2422 17.5001 35.625 17.5001C36.1047 17.5001 36.5844 17.317 36.9508 16.9508C37.6832 16.2184 37.6832 15.0321 36.9508 14.2992L32.6484 10.0001L35.625 7.02666L36.7992 8.20088C37.164 8.57041 37.6484 8.7501 38.125 8.7501C38.6015 8.7501 39.0844 8.56697 39.4508 8.2008C40.1797 7.46807 40.1797 6.28213 39.3828 5.54932ZM16.3125 12.0392L20.8875 16.6142C21.3758 17.1024 21.3758 17.8938 20.8875 18.3813C20.6406 18.6251 20.3203 18.7501 20 18.7501C19.6797 18.7501 19.3594 18.6251 19.1172 18.3829L14.539 13.8126L11.3125 17.0392L15.8875 21.6142C16.3758 22.1024 16.3758 22.8938 15.8875 23.3813C15.6406 23.6251 15.3203 23.7501 15 23.7501C14.6797 23.7501 14.3594 23.6251 14.1172 23.3829L9.53904 18.8126L6.46482 21.8829C5.52654 22.8204 4.99998 24.0938 4.99998 25.422V32.3501L0.549194 36.8009C-0.183228 37.5333 -0.183228 38.7196 0.549194 39.4524C0.915601 39.8204 1.39529 40.0001 1.87498 40.0001C2.35466 40.0001 2.83435 39.817 3.20076 39.4508L7.65154 35.0001H14.5804C15.9062 35.0001 17.1781 34.4732 18.1164 33.5353L32.7726 18.879L21.1242 7.23057L16.3125 12.0392Z" fill="black"/>
</g>
<defs>
<clipPath id="clip0_732_3261">
<rect width="40" height="40" fill="white"/>
</clipPath>
</defs>
</svg>
