<svg width="13" height="16" viewBox="0 0 13 16" fill="none" xmlns="http://www.w3.org/2000/svg">
<path d="M12.0714 5.44361C12.0714 2.9032 9.57589 0.84211 6.5 0.84211C3.42411 0.84211 0.928574 2.9032 0.928574 5.44361C0.928574 7.63252 2.78185 9.46673 5.26191 9.93008V11.579H3.86905C3.61369 11.579 3.40476 11.7515 3.40476 11.9624V13.2406C3.40476 13.4515 3.61369 13.6241 3.86905 13.6241H5.26191V14.7744C5.26191 14.9853 5.47084 15.1579 5.72619 15.1579H7.27381C7.52917 15.1579 7.7381 14.9853 7.7381 14.7744V13.6241H9.13095C9.38631 13.6241 9.59524 13.4515 9.59524 13.2406V11.9624C9.59524 11.7515 9.38631 11.579 9.13095 11.579H7.7381V9.93008C10.2182 9.46673 12.0714 7.63252 12.0714 5.44361V5.44361ZM3.40476 5.44361C3.40476 4.0344 4.79375 2.88722 6.5 2.88722C8.20625 2.88722 9.59524 4.0344 9.59524 5.44361C9.59524 6.85282 8.20625 8 6.5 8C4.79375 8 3.40476 6.85282 3.40476 5.44361Z" fill="#82DFDF"/>
</svg>
