<svg width="16" height="16" viewBox="0 0 16 16" fill="none" xmlns="http://www.w3.org/2000/svg">
<path d="M7.99997 7C5.51965 7 2.02809 10.8344 2.02809 13.2562C2.00059 14.3469 2.83622 15 4.24372 15C5.76872 15 6.77809 14.2156 7.99997 14.2156C9.23434 14.2156 10.2468 15 11.7562 15C13.1343 15 13.9981 14.3475 13.9981 13.2578C13.9718 10.8375 10.4812 7 7.99997 7ZM3.39997 6.60625C3.0759 5.52437 2.07184 4.82125 1.16184 5.04C0.251841 5.25875 -0.222033 6.3125 0.102154 7.39375C0.426216 8.47812 1.43028 9.18125 2.34028 8.9625C3.25028 8.74375 3.72184 7.6875 3.39997 6.60625ZM6.04684 5.95625C7.01153 5.70234 7.4959 4.42187 7.12497 3.03844C6.75403 1.655 5.67184 0.816563 4.7034 1.0425C3.73872 1.29641 3.25434 2.57687 3.62528 3.96031C3.99684 5.31562 5.07809 6.2125 6.04684 5.95625ZM14.8406 5.04062C13.9306 4.85 12.9265 5.525 12.6025 6.60687C12.2784 7.68906 12.7509 8.74344 13.6609 8.96219C14.5709 9.15281 15.5709 8.47781 15.899 7.39594C16.2218 6.3125 15.7218 5.25937 14.8406 5.04062ZM9.95309 5.95625C10.8937 6.21016 12.0037 5.31562 12.3747 3.96031C12.7456 2.605 12.2614 1.29625 11.2965 1.0425C10.3559 0.788594 9.2459 1.68313 8.87496 3.03844C8.50309 4.39375 8.98746 5.70312 9.95309 5.95625Z" fill="#82DFDF"/>
</svg>
