<svg width="10" height="16" viewBox="0 0 10 16" fill="none" xmlns="http://www.w3.org/2000/svg">
<path d="M5 0C5.55313 0 6 0.447812 6 1V2.115C6.05 2.12156 6.09688 2.12875 6.14688 2.13594C6.47813 2.18531 7.46563 2.34437 7.87188 2.44719C8.37813 2.58281 8.73125 3.12812 8.59375 3.6625C8.45938 4.19688 7.91563 4.52187 7.37813 4.3875C7.0875 4.28437 6.20313 4.16563 5.85313 4.11562C4.85 3.96562 3.99063 4.04063 3.4 4.26562C2.82875 4.48438 2.59157 4.79375 2.52875 5.14062C2.46813 5.475 2.51407 5.66563 2.56907 5.78438C2.62813 5.90938 2.74344 6.05 2.97313 6.20312C3.48125 6.5375 4.25625 6.7625 5.2625 7.03438L5.35 7.05937C6.2375 7.3 7.325 7.59688 8.13125 8.13125C8.57188 8.425 8.9875 8.82187 9.24375 9.37187C9.50313 9.92812 9.55938 10.5531 9.44063 11.1906C9.22188 12.4062 8.37813 13.2 7.3875 13.6125C6.9625 13.7875 6.49375 13.9 6 13.9563V15C6 15.5531 5.55313 16 5 16C4.44688 16 4 15.5531 4 15V13.9094C3.9875 13.9094 3.97188 13.8781 3.95938 13.9031H3.95313C3.19375 13.7844 1.93969 13.4563 1.09375 13.0813C0.589067 12.8562 0.361879 12.2656 0.586254 11.7594C0.810629 11.2562 1.40157 11.0281 1.87813 11.2531C2.55938 11.5437 3.63438 11.8281 4.25625 11.925C5.25625 12.075 6.07813 11.9875 6.63438 11.7625C7.1625 11.5469 7.40313 11.2344 7.47188 10.8594C7.53125 10.525 7.4875 10.3344 7.43125 10.2156C7.37188 10.0906 7.25625 9.95 7.02813 9.79688C6.51875 9.4625 5.74375 9.2375 4.7375 8.96562L4.65 8.94063C3.7625 8.7 2.67438 8.40312 1.8675 7.86875C1.42657 7.575 1.01344 7.17813 0.756879 6.62813C0.496567 6.07188 0.440004 5.44688 0.560942 4.78125C0.782192 3.56562 1.65782 2.79031 2.68625 2.39781C3.09313 2.2425 3.53438 2.14031 4 2.08531V1C4 0.447812 4.44688 0 5 0Z" fill="#82DFDF"/>
</svg>
